<svg xmlns="http://www.w3.org/2000/svg" xmlns:xlink="http://www.w3.org/1999/xlink" width="230" zoomAndPan="magnify" viewBox="0 0 172.5 44.999999" height="60" preserveAspectRatio="xMidYMid meet" version="1.0"><defs><g/><clipPath id="5f9dd73045"><path d="M 3 0.0664062 L 25.425781 0.0664062 L 25.425781 34 L 3 34 Z M 3 0.0664062 " clip-rule="nonzero"/></clipPath><clipPath id="10af64b1ac"><path d="M 25 11 L 25.425781 11 L 25.425781 44.933594 L 25 44.933594 Z M 25 11 " clip-rule="nonzero"/></clipPath><clipPath id="3cf542592b"><path d="M 25.785156 0.328125 L 26 0.328125 L 26 34 L 25.785156 34 Z M 25.785156 0.328125 " clip-rule="nonzero"/></clipPath><clipPath id="6f2afab81e"><path d="M 25.785156 11 L 48 11 L 48 44.933594 L 25.785156 44.933594 Z M 25.785156 11 " clip-rule="nonzero"/></clipPath></defs><g clip-path="url(#5f9dd73045)"><path fill="#1c35d8" d="M 20.992188 32.769531 C 21.890625 33.15625 22.902344 33.476562 24.035156 33.71875 C 24.34375 33.789062 24.339844 33.820312 24.023438 33.820312 C 22.597656 33.800781 21.121094 33.757812 19.59375 33.695312 C 15.46875 33.519531 11.289062 33.6875 7.214844 33.648438 C 6.71875 33.644531 6.089844 33.746094 5.804688 33.183594 C 3.429688 28.53125 2.652344 23.675781 3.472656 18.617188 C 4.375 13.054688 7.664062 7.980469 12.070312 4.597656 C 15.765625 1.757812 20.113281 0.25 25.105469 0.0625 C 25.304688 0.0585938 25.421875 0.152344 25.457031 0.347656 C 25.488281 0.503906 25.503906 0.65625 25.5 0.800781 C 25.445312 3.71875 25.4375 6.691406 25.476562 9.722656 C 25.484375 10.101562 25.523438 10.5 25.59375 10.921875 C 25.628906 11.125 25.542969 11.230469 25.335938 11.234375 C 22.996094 11.277344 20.914062 11.933594 19.089844 13.207031 C 16.195312 15.222656 14.496094 18.316406 14.261719 21.78125 C 13.925781 26.625 16.554688 30.855469 20.992188 32.769531 Z M 20.992188 32.769531 " fill-opacity="1" fill-rule="nonzero"/></g><g clip-path="url(#10af64b1ac)"><path fill="#1c35d8" d="M 34.992188 28.683594 C 36.617188 26.234375 37.132812 23.273438 36.632812 20.367188 C 35.886719 16.003906 32.523438 12.703125 28.320312 11.613281 C 27.710938 11.453125 27.71875 11.371094 28.347656 11.371094 C 33.40625 11.363281 38.679688 11.335938 44.175781 11.296875 C 44.40625 11.292969 44.644531 11.328125 44.890625 11.394531 C 44.96875 11.414062 45.03125 11.460938 45.078125 11.527344 C 45.375 11.976562 45.632812 12.433594 45.847656 12.898438 C 51.414062 24.941406 45.742188 38.8125 33.425781 43.507812 C 30.964844 44.449219 28.457031 44.914062 25.898438 44.902344 C 25.777344 44.902344 25.703125 44.84375 25.679688 44.722656 C 25.605469 44.378906 25.574219 44.015625 25.582031 43.632812 C 25.640625 40.609375 25.65625 37.929688 25.632812 35.582031 C 25.625 35.058594 25.578125 34.523438 25.488281 33.980469 C 25.476562 33.902344 25.507812 33.863281 25.582031 33.863281 C 29.726562 33.621094 32.863281 31.898438 34.992188 28.683594 Z M 34.992188 28.683594 " fill-opacity="1" fill-rule="nonzero"/></g><g clip-path="url(#3cf542592b)"><path fill="#fcc213" d="M 20.992188 32.769531 C 21.890625 33.15625 22.902344 33.476562 24.035156 33.71875 C 24.34375 33.789062 24.339844 33.820312 24.023438 33.820312 C 22.597656 33.800781 21.121094 33.757812 19.59375 33.695312 C 15.46875 33.519531 11.289062 33.6875 7.214844 33.648438 C 6.71875 33.644531 6.089844 33.746094 5.804688 33.183594 C 3.429688 28.53125 2.652344 23.675781 3.472656 18.617188 C 4.375 13.054688 7.664062 7.980469 12.070312 4.597656 C 15.765625 1.757812 20.113281 0.25 25.105469 0.0625 C 25.304688 0.0585938 25.421875 0.152344 25.457031 0.347656 C 25.488281 0.503906 25.503906 0.65625 25.5 0.800781 C 25.445312 3.71875 25.4375 6.691406 25.476562 9.722656 C 25.484375 10.101562 25.523438 10.5 25.59375 10.921875 C 25.628906 11.125 25.542969 11.230469 25.335938 11.234375 C 22.996094 11.277344 20.914062 11.933594 19.089844 13.207031 C 16.195312 15.222656 14.496094 18.316406 14.261719 21.78125 C 13.925781 26.625 16.554688 30.855469 20.992188 32.769531 Z M 20.992188 32.769531 " fill-opacity="1" fill-rule="nonzero"/></g><g clip-path="url(#6f2afab81e)"><path fill="#fcc213" d="M 34.992188 28.683594 C 36.617188 26.234375 37.132812 23.273438 36.632812 20.367188 C 35.886719 16.003906 32.523438 12.703125 28.320312 11.613281 C 27.710938 11.453125 27.71875 11.371094 28.347656 11.371094 C 33.40625 11.363281 38.679688 11.335938 44.175781 11.296875 C 44.40625 11.292969 44.644531 11.328125 44.890625 11.394531 C 44.96875 11.414062 45.03125 11.460938 45.078125 11.527344 C 45.375 11.976562 45.632812 12.433594 45.847656 12.898438 C 51.414062 24.941406 45.742188 38.8125 33.425781 43.507812 C 30.964844 44.449219 28.457031 44.914062 25.898438 44.902344 C 25.777344 44.902344 25.703125 44.84375 25.679688 44.722656 C 25.605469 44.378906 25.574219 44.015625 25.582031 43.632812 C 25.640625 40.609375 25.65625 37.929688 25.632812 35.582031 C 25.625 35.058594 25.578125 34.523438 25.488281 33.980469 C 25.476562 33.902344 25.507812 33.863281 25.582031 33.863281 C 29.726562 33.621094 32.863281 31.898438 34.992188 28.683594 Z M 34.992188 28.683594 " fill-opacity="1" fill-rule="nonzero"/></g><g fill="#0b0a57" fill-opacity="0.4"><g transform="translate(50.752258, 33.815251)"><g><path d="M 11.65625 0.203125 C 9.71875 0.203125 7.9375 -0.25 6.3125 -1.15625 C 4.695312 -2.0625 3.410156 -3.316406 2.453125 -4.921875 C 1.503906 -6.535156 1.03125 -8.363281 1.03125 -10.40625 C 1.03125 -12.414062 1.503906 -14.226562 2.453125 -15.84375 C 3.410156 -17.457031 4.695312 -18.71875 6.3125 -19.625 C 7.9375 -20.53125 9.71875 -20.984375 11.65625 -20.984375 C 13.601562 -20.984375 15.382812 -20.53125 17 -19.625 C 18.613281 -18.71875 19.890625 -17.457031 20.828125 -15.84375 C 21.765625 -14.226562 22.234375 -12.414062 22.234375 -10.40625 C 22.234375 -8.363281 21.765625 -6.535156 20.828125 -4.921875 C 19.890625 -3.316406 18.609375 -2.0625 16.984375 -1.15625 C 15.359375 -0.25 13.582031 0.203125 11.65625 0.203125 Z M 11.65625 -3.5 C 12.894531 -3.5 13.988281 -3.78125 14.9375 -4.34375 C 15.882812 -4.90625 16.625 -5.707031 17.15625 -6.75 C 17.695312 -7.800781 17.96875 -9.019531 17.96875 -10.40625 C 17.96875 -11.789062 17.695312 -13 17.15625 -14.03125 C 16.625 -15.070312 15.882812 -15.867188 14.9375 -16.421875 C 13.988281 -16.972656 12.894531 -17.25 11.65625 -17.25 C 10.40625 -17.25 9.300781 -16.972656 8.34375 -16.421875 C 7.382812 -15.867188 6.640625 -15.070312 6.109375 -14.03125 C 5.578125 -13 5.3125 -11.789062 5.3125 -10.40625 C 5.3125 -9.019531 5.578125 -7.800781 6.109375 -6.75 C 6.640625 -5.707031 7.382812 -4.90625 8.34375 -4.34375 C 9.300781 -3.78125 10.40625 -3.5 11.65625 -3.5 Z M 11.65625 -3.5 "/></g></g></g><g fill="#0b0a57" fill-opacity="0.4"><g transform="translate(74.012957, 33.815251)"><g><path d="M 22.4375 -16.65625 C 24.457031 -16.65625 26.082031 -16.035156 27.3125 -14.796875 C 28.550781 -13.566406 29.171875 -11.847656 29.171875 -9.640625 L 29.171875 0 L 25.015625 0 L 25.015625 -9.0625 C 25.015625 -10.351562 24.6875 -11.335938 24.03125 -12.015625 C 23.382812 -12.703125 22.5 -13.046875 21.375 -13.046875 C 20.25 -13.046875 19.351562 -12.703125 18.6875 -12.015625 C 18.03125 -11.335938 17.703125 -10.351562 17.703125 -9.0625 L 17.703125 0 L 13.546875 0 L 13.546875 -9.0625 C 13.546875 -10.351562 13.21875 -11.335938 12.5625 -12.015625 C 11.914062 -12.703125 11.03125 -13.046875 9.90625 -13.046875 C 8.757812 -13.046875 7.851562 -12.703125 7.1875 -12.015625 C 6.519531 -11.335938 6.1875 -10.351562 6.1875 -9.0625 L 6.1875 0 L 2.046875 0 L 2.046875 -16.421875 L 6.1875 -16.421875 L 6.1875 -14.4375 C 6.726562 -15.125 7.414062 -15.664062 8.25 -16.0625 C 9.09375 -16.457031 10.019531 -16.65625 11.03125 -16.65625 C 12.3125 -16.65625 13.453125 -16.382812 14.453125 -15.84375 C 15.460938 -15.300781 16.25 -14.523438 16.8125 -13.515625 C 17.34375 -14.460938 18.113281 -15.222656 19.125 -15.796875 C 20.144531 -16.367188 21.25 -16.65625 22.4375 -16.65625 Z M 22.4375 -16.65625 "/></g></g></g><g fill="#0b0a57" fill-opacity="0.4"><g transform="translate(105.066733, 33.815251)"><g><path d="M 4.15625 -18.375 C 3.414062 -18.375 2.800781 -18.601562 2.3125 -19.0625 C 1.832031 -19.53125 1.59375 -20.113281 1.59375 -20.8125 C 1.59375 -21.5 1.832031 -22.070312 2.3125 -22.53125 C 2.800781 -23 3.414062 -23.234375 4.15625 -23.234375 C 4.882812 -23.234375 5.488281 -23 5.96875 -22.53125 C 6.457031 -22.070312 6.703125 -21.5 6.703125 -20.8125 C 6.703125 -20.113281 6.457031 -19.53125 5.96875 -19.0625 C 5.488281 -18.601562 4.882812 -18.375 4.15625 -18.375 Z M 6.1875 -16.421875 L 6.1875 0 L 2.046875 0 L 2.046875 -16.421875 Z M 6.1875 -16.421875 "/></g></g></g><g fill="#0b0a57" fill-opacity="0.4"><g transform="translate(113.304276, 33.815251)"><g><path d="M 11.140625 -16.65625 C 13.097656 -16.65625 14.679688 -16.035156 15.890625 -14.796875 C 17.097656 -13.566406 17.703125 -11.847656 17.703125 -9.640625 L 17.703125 0 L 13.546875 0 L 13.546875 -9.0625 C 13.546875 -10.375 13.21875 -11.378906 12.5625 -12.078125 C 11.914062 -12.773438 11.03125 -13.125 9.90625 -13.125 C 8.757812 -13.125 7.851562 -12.773438 7.1875 -12.078125 C 6.519531 -11.378906 6.1875 -10.375 6.1875 -9.0625 L 6.1875 0 L 2.046875 0 L 2.046875 -16.421875 L 6.1875 -16.421875 L 6.1875 -14.375 C 6.75 -15.082031 7.457031 -15.640625 8.3125 -16.046875 C 9.175781 -16.453125 10.117188 -16.65625 11.140625 -16.65625 Z M 11.140625 -16.65625 "/></g></g></g><g fill="#0b0a57" fill-opacity="0.4"><g transform="translate(132.890676, 33.815251)"><g><path d="M 4.15625 -18.375 C 3.414062 -18.375 2.800781 -18.601562 2.3125 -19.0625 C 1.832031 -19.53125 1.59375 -20.113281 1.59375 -20.8125 C 1.59375 -21.5 1.832031 -22.070312 2.3125 -22.53125 C 2.800781 -23 3.414062 -23.234375 4.15625 -23.234375 C 4.882812 -23.234375 5.488281 -23 5.96875 -22.53125 C 6.457031 -22.070312 6.703125 -21.5 6.703125 -20.8125 C 6.703125 -20.113281 6.457031 -19.53125 5.96875 -19.0625 C 5.488281 -18.601562 4.882812 -18.375 4.15625 -18.375 Z M 6.1875 -16.421875 L 6.1875 0 L 2.046875 0 L 2.046875 -16.421875 Z M 6.1875 -16.421875 "/></g></g></g><g fill="#0b0a57" fill-opacity="0.4"><g transform="translate(141.128219, 33.815251)"><g><path d="M 9.578125 -13.015625 L 6.703125 -13.015625 L 6.703125 0 L 2.484375 0 L 2.484375 -13.015625 L 0.625 -13.015625 L 0.625 -16.421875 L 2.484375 -16.421875 L 2.484375 -17.25 C 2.484375 -19.269531 3.054688 -20.753906 4.203125 -21.703125 C 5.347656 -22.648438 7.078125 -23.09375 9.390625 -23.03125 L 9.390625 -19.53125 C 8.390625 -19.550781 7.691406 -19.382812 7.296875 -19.03125 C 6.898438 -18.675781 6.703125 -18.035156 6.703125 -17.109375 L 6.703125 -16.421875 L 9.578125 -16.421875 Z M 9.578125 -13.015625 "/></g></g></g><g fill="#0b0a57" fill-opacity="0.4"><g transform="translate(151.351078, 33.815251)"><g><path d="M 17.75 -16.421875 L 7.59375 7.765625 L 3.171875 7.765625 L 6.734375 -0.421875 L 0.140625 -16.421875 L 4.796875 -16.421875 L 9.046875 -4.953125 L 13.34375 -16.421875 Z M 17.75 -16.421875 "/></g></g></g><g fill="#1c35d8" fill-opacity="1"><g transform="translate(49.442439, 32.505429)"><g><path d="M 11.65625 0.203125 C 9.71875 0.203125 7.9375 -0.25 6.3125 -1.15625 C 4.695312 -2.0625 3.410156 -3.316406 2.453125 -4.921875 C 1.503906 -6.535156 1.03125 -8.363281 1.03125 -10.40625 C 1.03125 -12.414062 1.503906 -14.226562 2.453125 -15.84375 C 3.410156 -17.457031 4.695312 -18.71875 6.3125 -19.625 C 7.9375 -20.53125 9.71875 -20.984375 11.65625 -20.984375 C 13.601562 -20.984375 15.382812 -20.53125 17 -19.625 C 18.613281 -18.71875 19.890625 -17.457031 20.828125 -15.84375 C 21.765625 -14.226562 22.234375 -12.414062 22.234375 -10.40625 C 22.234375 -8.363281 21.765625 -6.535156 20.828125 -4.921875 C 19.890625 -3.316406 18.609375 -2.0625 16.984375 -1.15625 C 15.359375 -0.25 13.582031 0.203125 11.65625 0.203125 Z M 11.65625 -3.5 C 12.894531 -3.5 13.988281 -3.78125 14.9375 -4.34375 C 15.882812 -4.90625 16.625 -5.707031 17.15625 -6.75 C 17.695312 -7.800781 17.96875 -9.019531 17.96875 -10.40625 C 17.96875 -11.789062 17.695312 -13 17.15625 -14.03125 C 16.625 -15.070312 15.882812 -15.867188 14.9375 -16.421875 C 13.988281 -16.972656 12.894531 -17.25 11.65625 -17.25 C 10.40625 -17.25 9.300781 -16.972656 8.34375 -16.421875 C 7.382812 -15.867188 6.640625 -15.070312 6.109375 -14.03125 C 5.578125 -13 5.3125 -11.789062 5.3125 -10.40625 C 5.3125 -9.019531 5.578125 -7.800781 6.109375 -6.75 C 6.640625 -5.707031 7.382812 -4.90625 8.34375 -4.34375 C 9.300781 -3.78125 10.40625 -3.5 11.65625 -3.5 Z M 11.65625 -3.5 "/></g></g></g><g fill="#1c35d8" fill-opacity="1"><g transform="translate(72.703138, 32.505429)"><g><path d="M 22.4375 -16.65625 C 24.457031 -16.65625 26.082031 -16.035156 27.3125 -14.796875 C 28.550781 -13.566406 29.171875 -11.847656 29.171875 -9.640625 L 29.171875 0 L 25.015625 0 L 25.015625 -9.0625 C 25.015625 -10.351562 24.6875 -11.335938 24.03125 -12.015625 C 23.382812 -12.703125 22.5 -13.046875 21.375 -13.046875 C 20.25 -13.046875 19.351562 -12.703125 18.6875 -12.015625 C 18.03125 -11.335938 17.703125 -10.351562 17.703125 -9.0625 L 17.703125 0 L 13.546875 0 L 13.546875 -9.0625 C 13.546875 -10.351562 13.21875 -11.335938 12.5625 -12.015625 C 11.914062 -12.703125 11.03125 -13.046875 9.90625 -13.046875 C 8.757812 -13.046875 7.851562 -12.703125 7.1875 -12.015625 C 6.519531 -11.335938 6.1875 -10.351562 6.1875 -9.0625 L 6.1875 0 L 2.046875 0 L 2.046875 -16.421875 L 6.1875 -16.421875 L 6.1875 -14.4375 C 6.726562 -15.125 7.414062 -15.664062 8.25 -16.0625 C 9.09375 -16.457031 10.019531 -16.65625 11.03125 -16.65625 C 12.3125 -16.65625 13.453125 -16.382812 14.453125 -15.84375 C 15.460938 -15.300781 16.25 -14.523438 16.8125 -13.515625 C 17.34375 -14.460938 18.113281 -15.222656 19.125 -15.796875 C 20.144531 -16.367188 21.25 -16.65625 22.4375 -16.65625 Z M 22.4375 -16.65625 "/></g></g></g><g fill="#1c35d8" fill-opacity="1"><g transform="translate(103.756913, 32.505429)"><g><path d="M 4.15625 -18.375 C 3.414062 -18.375 2.800781 -18.601562 2.3125 -19.0625 C 1.832031 -19.53125 1.59375 -20.113281 1.59375 -20.8125 C 1.59375 -21.5 1.832031 -22.070312 2.3125 -22.53125 C 2.800781 -23 3.414062 -23.234375 4.15625 -23.234375 C 4.882812 -23.234375 5.488281 -23 5.96875 -22.53125 C 6.457031 -22.070312 6.703125 -21.5 6.703125 -20.8125 C 6.703125 -20.113281 6.457031 -19.53125 5.96875 -19.0625 C 5.488281 -18.601562 4.882812 -18.375 4.15625 -18.375 Z M 6.1875 -16.421875 L 6.1875 0 L 2.046875 0 L 2.046875 -16.421875 Z M 6.1875 -16.421875 "/></g></g></g><g fill="#1c35d8" fill-opacity="1"><g transform="translate(111.994457, 32.505429)"><g><path d="M 11.140625 -16.65625 C 13.097656 -16.65625 14.679688 -16.035156 15.890625 -14.796875 C 17.097656 -13.566406 17.703125 -11.847656 17.703125 -9.640625 L 17.703125 0 L 13.546875 0 L 13.546875 -9.0625 C 13.546875 -10.375 13.21875 -11.378906 12.5625 -12.078125 C 11.914062 -12.773438 11.03125 -13.125 9.90625 -13.125 C 8.757812 -13.125 7.851562 -12.773438 7.1875 -12.078125 C 6.519531 -11.378906 6.1875 -10.375 6.1875 -9.0625 L 6.1875 0 L 2.046875 0 L 2.046875 -16.421875 L 6.1875 -16.421875 L 6.1875 -14.375 C 6.75 -15.082031 7.457031 -15.640625 8.3125 -16.046875 C 9.175781 -16.453125 10.117188 -16.65625 11.140625 -16.65625 Z M 11.140625 -16.65625 "/></g></g></g><g fill="#1c35d8" fill-opacity="1"><g transform="translate(131.580856, 32.505429)"><g><path d="M 4.15625 -18.375 C 3.414062 -18.375 2.800781 -18.601562 2.3125 -19.0625 C 1.832031 -19.53125 1.59375 -20.113281 1.59375 -20.8125 C 1.59375 -21.5 1.832031 -22.070312 2.3125 -22.53125 C 2.800781 -23 3.414062 -23.234375 4.15625 -23.234375 C 4.882812 -23.234375 5.488281 -23 5.96875 -22.53125 C 6.457031 -22.070312 6.703125 -21.5 6.703125 -20.8125 C 6.703125 -20.113281 6.457031 -19.53125 5.96875 -19.0625 C 5.488281 -18.601562 4.882812 -18.375 4.15625 -18.375 Z M 6.1875 -16.421875 L 6.1875 0 L 2.046875 0 L 2.046875 -16.421875 Z M 6.1875 -16.421875 "/></g></g></g><g fill="#1c35d8" fill-opacity="1"><g transform="translate(139.8184, 32.505429)"><g><path d="M 9.578125 -13.015625 L 6.703125 -13.015625 L 6.703125 0 L 2.484375 0 L 2.484375 -13.015625 L 0.625 -13.015625 L 0.625 -16.421875 L 2.484375 -16.421875 L 2.484375 -17.25 C 2.484375 -19.269531 3.054688 -20.753906 4.203125 -21.703125 C 5.347656 -22.648438 7.078125 -23.09375 9.390625 -23.03125 L 9.390625 -19.53125 C 8.390625 -19.550781 7.691406 -19.382812 7.296875 -19.03125 C 6.898438 -18.675781 6.703125 -18.035156 6.703125 -17.109375 L 6.703125 -16.421875 L 9.578125 -16.421875 Z M 9.578125 -13.015625 "/></g></g></g><g fill="#1c35d8" fill-opacity="1"><g transform="translate(150.041258, 32.505429)"><g><path d="M 17.75 -16.421875 L 7.59375 7.765625 L 3.171875 7.765625 L 6.734375 -0.421875 L 0.140625 -16.421875 L 4.796875 -16.421875 L 9.046875 -4.953125 L 13.34375 -16.421875 Z M 17.75 -16.421875 "/></g></g></g><g fill="#0b0a57" fill-opacity="0.4"><g transform="translate(169.278141, 33.815251)"><g/></g></g><g fill="#1c35d8" fill-opacity="1"><g transform="translate(167.968322, 32.505429)"><g/></g></g></svg>